/* XPM */
static char *result[] = {
/* columns rows colors chars-per-pixel */
"65 66 27 1 ",
"  c black",
". c #282008",
"X c #382810",
"o c #202020",
"O c gray22",
"+ c #483818",
"@ c #684820",
"# c #000040",
"$ c #000058",
"% c #000070",
"& c #000078",
"* c #805028",
"= c #885830",
"- c #C86000",
"; c #F87800",
": c #F8F800",
"> c #F8A858",
", c #F8A070",
"< c #000098",
"1 c #0000B0",
"2 c #0000B8",
"3 c gray66",
"4 c #F8B080",
"5 c #C0C0C0",
"6 c #D0D0D0",
"7 c gray91",
"8 c None",
/* pixels */
"88888888888888888888888888888888888888888888888888888888888888888",
"88888888888888888888888888888888888888888888888888888888888888888",
"88888888888888888888888888888888888888888888888888888888888888888",
"88888888888888888888888888888888888888888888888888888888888888888",
"88888888888888888888888888888888888888888888888888888888888888888",
"88888888888888888888888888888888888888888888888888888888888888888",
"88888888888888888888888888888888888888888888888888888888888888888",
"88888888888888888888888888888888888888888888888888888888888888888",
"88888888888888888888888888888888888888888888888888888888888888888",
"88888888888888888888888888888888888888888888888888888888888888888",
"88888888888888888888888888888888888888888888888888888888888888888",
"88888888888888888888888888888888888888888888888888888888888888888",
"88888888888888888888888888888888888888888888888888888888888888888",
"88888888888888888888888888888888888888888888888888888888888888888",
"88888888888888888888888888888888888888888888888888888888888888888",
"88888888888888888888888888888888888888888888888888888888888888888",
"88888888888888888888888888888888888888888888888888888888888888888",
"88888888888888888888888888888888888888888888888888888888888888888",
"88888888888888888888888888888888888888888888888888888888888888888",
"88888888888888888888888888888888888888888888888888888888888888888",
"88888888888888888888888888888888888888888888888888888888888888888",
"88888888888888888888888888888888888888888888888888888888888888888",
"88888888888888888888888888888888888888888888888888888888888888888",
"88888888888888888888888888888888888888888888888888888888888888888",
"88888888888888888888888888888888888888888888888888888888888888888",
"88888888888888888888888888888888888888888888888888888888888888888",
"88888888888888888888888888888888888888888888888888888888888888888",
"88888888888888888888888888888888888888888888888888888888888888888",
"88888888888888888888888888888888888888888888888888888888888888888",
"88888888888888888888888888888888888888888888888888888888888888888",
"88888888888888888888888888888888888888888888888888888888888888888",
"88888888888888888888888888888888888888888888888888888888888888888",
"88888888888888888888888888888888888888888888888888888888888888888",
"88888888888888888888888888888888888888888888888888888888888888888",
"88888888888888888888888888888888888888888888888888888888888888888",
"88888888888888888888888888888888888888888888888888888888888888888",
"88888888888888888888888888888888888888888888888888888888888888888",
"88888888888888888888888888888888888888888888888888888888888888888",
"88888888888888888888888888888888888888888888888888888888888888888",
"88888888888888888888888888888888888888888888888888888888888888888",
"88888888888888888888888888888888888888888888888888888888888888888",
"88888888888888888888888888888888888888888888888888888888888888888",
"88888888888888888888888888888888888888888888888888888888888888888",
"88888888888888888888888888888888888888888888888888888888888888888",
"88888888888888888888888888888888888888888888888888888888888888888",
"88888888888888888888888888888888888888888888888888888888888888888",
"88888888888888888888888888888888888888888888888888888888888888888",
"88888888888888888888888888888888888888888888888888888888888888888",
"88888888888888888888888888888888888888888888888888888888888888888",
"88888888888888888888888888888888888888888888888888888888888888888",
"88888888888888888888888888888888888888888888888888888888888888888",
"88888888888888888888888888888888888888888888888888888888888888888",
"88888888888888558888O88888888888888888888888888888888888888888888",
"888888888888857888888O8888888888888888888888888888888888888888888",
"88888888888858888OOo.O88888888>::::>88888888888888888888888888888",
"88888888888858888OOo..8888,,,,,,,,,;;8888888888888888888888888888",
"88888888888568888O88Oo>,,:::::::::::,,888888888888888888888888888",
"888888888856663888>>,,,::,,,,,,,,,,===,,>>88888888888888888888888",
"8888888888863-,>>-81111>>>:>>:8:>>>,,*=:>>>>>8:888888888888888888",
"888888888888-,8==8oo##$$:8:-:811&&88:*+@::::>>>>>>888888888888888",
"8888888888884::8oooooo $$8=-=12&&&&=@+XX+@==::::@,,,-888888888888",
"888888888888888ooooooo $$-=+.<%ooo##&+888+++@@==@:::>888888888888",
"88888888888888ooooooo   ++..8%oooooo##&88888888888888888888888888",
"88888888888888ooooo    ..8888$oooooooo# 8888888888888888888888888",
"888888888888888oo   88888888888oooooooo 8888888888888888888888888",
"888888888888888888888888888888888oooooo88888888888888888888888888"
};
