/* XPM */
static char *_ad4c3f450a84120cbe021167fbc8c6c[] = {
/* columns rows colors chars-per-pixel */
"74 74 35 1 ",
"  c None",
". c black",
"X c #282008",
"o c #382810",
"O c #202020",
"+ c gray22",
"@ c #483818",
"# c #684820",
"$ c #000040",
"% c #000048",
"& c #000058",
"* c #000060",
"= c #000070",
"- c #000078",
"; c #984800",
": c #805028",
"> c #885830",
", c #C86000",
"< c #F8F800",
"1 c #F8A858",
"2 c #F8A070",
"3 c #000088",
"4 c #000098",
"5 c #0000A0",
"6 c #0000A8",
"7 c #0000D0",
"8 c #0000F8",
"9 c gray66",
"0 c #F8B080",
"q c #F8B890",
"w c #F8C0A0",
"e c #D0D0D0",
"r c #D8D8D8",
"t c gray91",
"y c white",
/* pixels */
"                                                                          ",
"                                                                          ",
"                                                                          ",
"                                                                          ",
"                                                                          ",
"                                                                          ",
"                                                                          ",
"                                                                          ",
"                                                                          ",
"                                                                          ",
"                                                                          ",
"                                                                          ",
"                                                                          ",
"                                                                          ",
"                                                                          ",
"                                                                          ",
"                                                                          ",
"                                                                          ",
"                                                                          ",
"                                                                          ",
"                                    e9yyO                                 ",
"                                   eyyy+XX                                ",
"                                  9yyyy+OX                                ",
"                                  9yyyyy+XX                               ",
"                                  rtre9yyyOO                              ",
"                                 +.,8,:8:..O                              ",
"                                X.#2w<<w2#.X                              ",
"                                 .@<1111<@.                               ",
"                                  @y<y<<y@                                ",
"                                 ..,1001@..                               ",
"                                 ...#,,,...                               ",
"                                 Oyt....ty.;                              ",
"                                +y@.+>@O..<<,                             ",
"                             ,< +O;<1y<<<<<<<,                            ",
"                             ,1;<OO;<y,;;<1<yy#                           ",
"                             ,y;,<..;y,y<><,y<#                           ",
"                              <#,<#..O;#,,,@y<@                           ",
"                              <<,y<#o..<0q<#y<>                           ",
"                              <<#<yy#oo01<<<<,                            ",
"                             <<@@,y:<#;01<<<<<#                           ",
"                              2,OyyyreOo<<X>>>#                           ",
"                              q OyyyyyOOOO#####                           ",
"                                @#::::@::@@###                            ",
"                               :<<<<y<#,;>#@X                             ",
"                               ;<11<<<>,;>#@@                             ",
"                               <111<<<,#;>#@@                             ",
"                               <,;;;;;,#;>#@o                             ",
"                               ,<y<<y,#X@@@oo                             ",
"                               ;<111<y>@##@@o                             ",
"                               ;<1111y>@:##@                              ",
"                                <1111y;@:##@                              ",
"                               <11111<<#>##@                              ",
"                                1<111<>>,#@#@                             ",
"                               1<yyyy,y#@@@o@                             ",
"                               ::yyyy<#o@@o.                              ",
"                                :,yyy<#.....                              ",
"                                ::>>>#X....                               ",
"                                 ......$$$.                               ",
"                                 =6=...$-*.                               ",
"                                 =6=....4*.                               ",
"                                 =6=....34*                               ",
"                                  6=.. ....                               ",
"                                  .=..                                    ",
"                                 %=7-$.                                   ",
"                                O*353&.O                                  ",
"                                O$$$...O                                  ",
"                                                                          ",
"                                                                          ",
"                                                                          ",
"                                                                          ",
"                                                                          ",
"                                                                          ",
"                                                                          ",
"                                                                          "
};
