/* XPM */
static char *_e000526262b44c8a6aab4064404ccf0[] = {
/* columns rows colors chars-per-pixel */
"74 74 33 1 ",
"  c None",
". c black",
"X c #282008",
"o c #382810",
"O c #202020",
"+ c gray22",
"@ c #483818",
"# c #684820",
"$ c #000040",
"% c #000048",
"& c #000060",
"* c #000070",
"= c #000078",
"- c #984800",
"; c #805028",
": c #885830",
"> c #C86000",
", c #F8F800",
"< c #F8A858",
"1 c #F8A070",
"2 c #000088",
"3 c #0000A8",
"4 c #0000B0",
"5 c #0000C8",
"6 c #0000F8",
"7 c gray66",
"8 c #F8B080",
"9 c #F8B890",
"0 c #F8C0A0",
"q c #C0C0C0",
"w c #D0D0D0",
"e c #D8D8D8",
"r c gray91",
/* pixels */
"                                                                          ",
"                                                                          ",
"                                                                          ",
"                                                                          ",
"                                                                          ",
"                                                                          ",
"                                                                          ",
"                                                                          ",
"                                                                          ",
"                                                                          ",
"                                                                          ",
"                                                                          ",
"                                                                          ",
"                                                                          ",
"                                                                          ",
"                                                                          ",
"                                                                          ",
"                                                                          ",
"                                                                          ",
"                                                                          ",
"                                                                          ",
"                                    w7  O                                 ",
"                                   w   +XX                                ",
"                                  7    +OX                                ",
"                                  7     +XX                               ",
"                                  erew7   OO                              ",
"                                 +.>6>;6;..O                              ",
"                                X.#10,,01#.X                              ",
"                                 .@,<<<<,@.                               ",
"                                  @ , ,, @                                ",
"                                 ..><88<@..                               ",
"                                 .  .:,.  ..#                             ",
"                              ,, Owq....q .-,,                            ",
"                             #,<, @.+:X:..,,,,,                           ",
"                              <,,O -<<>,,,,,   #                          ",
"                             ,< ,,OO-,>,--;#>->                           ",
"                            ,< ,; -.O-@,-,,###-;;                         ",
"                            ,< #@#;-.OO-#>>@#X;;@                         ",
"                             <,#o@##@..O-#@#@X##;                         ",
"                           <<<,#Xo@@o@...O-@XXo@#                         ",
"                           < >@@XoooooX@...XX@@;;#                        ",
"                            << ;X....   .....@#--#                        ",
"                            , >>#....  +....XX.>>#                        ",
"                            ,,9,#@@###@#@@@ooX, >>                        ",
"                            ,9,:,#;:,,@;;;#@@o, >>                        ",
"                             11,,;::-,;#:;##@ o ,                         ",
"                              ,,::::--;#::;#@                             ",
"                               @@>>##;;#::;#@                             ",
"                                ,,<<,#XX@##oX                             ",
"                                ,111<,@@##;#@                             ",
"                                <111<,:#;::;@                             ",
"                               >11111>:#;::;@                             ",
"                               <<<<<,<:#;::;@                             ",
"                               <>,,>;> #;:>;@                             ",
"                                #;;,,@:#;:;>#                             ",
"                               @#;;#@@X@;;##;@                            ",
"                                o#@@oo@@@@@@o@                            ",
"                                .XXX..@@@@@@o                             ",
"                                .*....X@@@oXo                             ",
"                                 *%...$.$...                              ",
"                                 .....$.$...                              ",
"                                 =....$&$$..                              ",
"                                .3&... $&$..                              ",
"                                .52*.. 2*$..                              ",
"                                 ....  2**.                               ",
"                                      .43=$.                              ",
"                                      4=&$$..                             ",
"                                      .......                             ",
"                                                                          ",
"                                                                          ",
"                                                                          ",
"                                                                          ",
"                                                                          ",
"                                                                          "
};
