/* XPM */
static char *_808b14b2a6f4d19f2a8bf1b7a468332[] = {
/* columns rows colors chars-per-pixel */
"74 74 42 1 ",
"  c None",
". c black",
"X c #282008",
"o c #382810",
"O c #202020",
"+ c gray22",
"@ c #600000",
"# c #483818",
"$ c #684820",
"% c #000040",
"& c #000048",
"* c #000060",
"= c #000070",
"- c #000078",
"; c #980000",
": c #C80000",
"> c #E80000",
", c #F80000",
"< c #984800",
"1 c #B05000",
"2 c #805028",
"3 c #885830",
"4 c #C86000",
"5 c #F05050",
"6 c #F88820",
"7 c #F8F800",
"8 c #F8A858",
"9 c #F8A070",
"0 c #000088",
"q c #000098",
"w c #0000A8",
"e c #0000B0",
"r c #0000D0",
"t c #0000E0",
"y c gray66",
"u c #F8B080",
"i c #F8B890",
"p c #C0C0C0",
"a c #D0D0D0",
"s c #D8D8D8",
"d c gray91",
"f c #F8F8F8",
/* pixels */
"                                                                          ",
"                                                                          ",
"                                                                          ",
"                                                                          ",
"                                                                          ",
"                                                                          ",
"                                                                          ",
"                                                                          ",
"                                                                          ",
"                                                                          ",
"                                                                          ",
"                                                                          ",
"                                                                          ",
"                                                                          ",
"                                                                          ",
"                                                                          ",
"                                                                          ",
"                                                                          ",
"                                                                          ",
"                                                                          ",
"                                                                          ",
"                                                                          ",
"                                      aay  +                              ",
"                                     ady  +O+                             ",
"                                     yy   +O.                             ",
"                                     p    +O.                             ",
"                                    psfsy   X.                            ",
"                                   p:X11111X.X.                           ",
"                                     @51815@$:                            ",
"                                   5@;677761#                             ",
"                                    @187f781.                             ",
"                                  98.1>587>1.o<7                          ",
"                               i9 42o@56615@177247                        ",
"                              79988:93@111@..888847                       ",
"                               998894u,791  4#77  7                       ",
"                               i877 $uu7i9  4#777<$                       ",
"                                74433#3337XX..#$$$X                       ",
"                               #####X..X.###73#XXX                        ",
"                                 2XXo#...+7773#X                          ",
"                                  3#Xo2...+743#X                          ",
"                                   3##o2....3#X                           ",
"                                   84#oo.3...#X                           ",
"                                   +O..yy .....                           ",
"                                   +O..   .....                           ",
"                                   847$$o$$X$#X                           ",
"                                  88777$.$$$2$#X                          ",
"                                  88777$.$4<<$#X                          ",
"                                 888777..#4<<2#X                          ",
"                                 88777$.X.$<32#XX                         ",
"                                <3$$oo.XXX......X                         ",
"                                7788 #oX X#4 742X                         ",
"                               7 888 2oX X# 7874o                         ",
"                               7 8u8 3X   X<7787o                         ",
"                               77uu$ #X   X$$488#o                        ",
"                               7u7 8$X     X 8744o                        ",
"                              778u #$oX   X##4784#X                       ",
"                              778u <#X     X< 774#X                       ",
"                              7888 3#X     X<7774#X                       ",
"                              <   $$o      X#<<##XX                       ",
"                              .......       ......                        ",
"                              .--%..        .w=%%.                        ",
"                              .w&%..        .*w&%.                        ",
"                              .t-%..         .wt%..                       ",
"                              .w&%.          .*w&..                       ",
"                              *w&..           .w=%.                       ",
"                             Xwr-&..         .0ree=.                      ",
"                            Xw==%&..         .wq=%%..                     ",
"                            .......           .......                     ",
"                                                                          ",
"                                                                          ",
"                                                                          ",
"                                                                          ",
"                                                                          ",
"                                                                          "
};
