/* XPM */
static char *_13effc470b34ba6e55ac02954ae7736[] = {
/* columns rows colors chars-per-pixel */
"64 64 32 1 ",
"  c #282828",
". c gray17",
"X c #2B2B2C",
"o c #2B2C2C",
"O c #2C2C2C",
"+ c #2F2F2F",
"@ c #2F2F30",
"# c gray19",
"$ c gray21",
"% c #3A3A3A",
"& c gray23",
"* c #3C3C3C",
"= c #3F3F3F",
"- c #3C4145",
"; c #3D4246",
": c gray25",
"> c #434343",
", c #444444",
"< c gray28",
"1 c #484848",
"2 c #4B4B4B",
"3 c #4C4C4C",
"4 c #4E4E4E",
"5 c gray31",
"6 c #505050",
"7 c #535353",
"8 c #505C66",
"9 c #64717B",
"0 c #97A6B2",
"q c #9EAAB3",
"w c #F4FAFF",
"e c white",
/* pixels */
"###+##+++++++++.+++++++#.++++++++++++++.###+#+++++++#+++++###+#+",
"##=::=::::=:=====:=::=::++...+....++..+.::::::===%==::====::=:%#",
"#<<1111111<<11<<14411414+.414141<14141..1111111<<<<<<1111111111#",
"#:::::<=:<:::::::::::::<..444114141441+.::<::<:<:=:=::::::<::::#",
"#111:<<<<::<<<<<<:<<<<14..641441111444+.1<<<<=:<<<<<<::<<<<:441#",
"#::<<11414144111<<4114:<..144114444141..:<141<1141111441114<<:<#",
"#<<<<41141111441144441<1..114411141444..<:444:11144441411111<1<+",
"#<<1:44141414414411144<1+.644144441441..<114114141141414444<11<+",
"#::<<61444444414444444<<++...+....+...++::444<44444414144141<<<+",
"#<11:111<<11<1<11<111111.+.+...+++...++.<1441<1411444444141<111+",
"#::<<114111444<1144414:<..411441..4141.+:=141<1441411441414<=<<+",
"#<11<441444111<141414111..414414.+4141..<<<<<<4144141414144<11<+",
"#<:<:411414414<1414144<1+.414141..1441..<:141444414414<1411<:<:#",
"#::<<441141141<4444444:<..644444+.4444.+:<444441414411=:414<<<<#",
"#:<<:11<111411:414144414..414114..1444..1<44114441111<=<114<:<<+",
"#===:111441<<4<1414141::..444414..4114..::11<<<:<1<:::=:<<1::::+",
"#<<<:114441<14<114414114.+144414..4114.+1114411<11<<:<:1111<1<<+",
"+=:=:<11111411<11<1<<1:<..414141++1441..::11111:<<<1=<<111<<:<:+",
"#:<:<<11<1<<1<<<<11:<::1.+441444..4444..<<<<<<<<=::<:1<:<<<<:<<+",
"#:<<<11<<<<1<<<<11<<<<11.+114144..1441+.:<<<<<:<::<:<<:::<:<<<:+",
"#$::::<::::::::::::::::<..11<4..+.1111+.=:<:=:::<=======:::===%+",
"###+##++++#####+#+++#+##+.11<<.++.411<..##+++++++++++++++##+++++",
"##++++++.++.++++++++++++..1<11+++.<<<<..+++++++++++.+.++++++++++",
"#+++++++++++++.+++.++++#++1114.++.1<11.+#.++++.++.++++++++++#+++",
"#+++++++++X++.++++.+++++..4111+++.111:+.#++++.+..++.++++++++++++",
"#+++++++++++++++++++.+++..4141.++.1<<<..+++++++++++++.++++++++++",
"++++++++++.+X++++.+.+++#.+4114.++.:111.++++++++++++++.+o++++++++",
"+++++++++.+++++++++++++#.+4141.++.<11<..++.++.+.+..+++++.+++++++",
"######++++######+++###+#.+4441.++.1414+.+##+##++++++++##@@######",
".+.+.+.+..X.+X.....+.+.+..1414++++1141....+++.+...+X+X+...+.+..+",
"+9qqqqqqqqqqqqqqqqqqqq0;..1141+++.11<1..;0qqqqqqqqqqqqqqqqqqqq9+",
"+qeeeeeeeeeeeeeeeeeeeew8..1414.++.1414..8weeeeeeeeeeeeeeeeeeeeq+",
"+qeeeeeeeeeeeeeeeeeeeew8.+4141.++.1411++8weeeeeeeeeeeeeeeeeeeeq@",
"+9qqqqqqqqqqqqqqqqqqqq0;..4111.++.1441..;0qqqqqqqqqqqqqqqqqqqq9+",
"..++..+.X+o...+...+...++..114<.++.1141..++...+.+.+..+....+.o.+X+",
"########++###@++####++++..41<<.++.1<11..###++#+###++###+########",
"###++++++++.++..+++++.+++.1111+++.1<11+.++++.+.+++++.++++++++++#",
"##+++++++++++.++++++++++..41<<.+++:411.+++++++++o++.++.+++++++++",
"+++++++++++.++++.+.+++++..4144.++.1111..++++++.++X++.+.+++++@+++",
"++++++.++.++++.+++.+++++.+41<<.++.111:..++.+.++++++++++++++++++#",
"#+++++++++++..++++++.+++..14<<.++.1<<<..#+++++++++++++++++++++++",
"#++++++++.++++.+++++++++..4111.++.<<<<..#++++..+.++++.++++++++++",
"##+++++o++++..++..+.+++++.4<1<+++.<:1<.+++..++.+.++....+++.+++++",
"##====%%%%=:===%====%===..4414.+..1441..=%==========%===%=====$+",
"#::::::=:<==::<::<::::<<.+<<<<+.<<1441..=:<:<<:<=:<:::::==<<=::#",
"#:<<<:1::<<=<<:<<<4<1111..<4<<..<14114..1111<11<<:<<:<<:<=<<:11#",
"#===%<:::::====:==:<:<:<..1441..<44141+.==::<::<<===%:====:=:::#",
"#:<<:141411<<1<11:1<4411.+411<..<11441.+1<4414414<<<<1:<==1:<<1#",
"#=:::441144<<1144=<444=<+.4<<1#.414444..<=4414444<4<4<<<<:<::::#",
"#<:<:111<<1<<1<<4:<114<4..4141+.14144<+.<=441444<441111<<:1<<:1#",
"+<<1:1<<<1<<:1<:1:111<<1..4144..444114..<<1<1:1:<1:1::::=:<=<<1#",
"+:<:<411<1<<11111<1114:1+.4441..411414..<=776646<6144411444<:<<#",
"#<14:44<1<1111111:<<<<11..4141..14<44<++<<41<444<11414144141111#",
"+=::<444111111414<4446:<+.4444+.444444..==464441<44444444441:<<#",
"#<11:441111111144<144411.+....+++.....+.<1441614<44414441411<<<+",
"#:<<111141<<<411114141:1.+............+.<:4<4<4<:41441<<1141:<<+",
"#::<:11:<<<::<<<<<<<<<<<.+444441<44144++<=4114<4144114<4414<<<=#",
"#<1116641<46464444446611.+414144141441..1<44144<<14444<4414<<<1#",
"#::<<46111444414111466:1.+64<444444444..::444411<1444<11444<<:<+",
"#114:11111<1<1111<1<1114..414<1411144<+.41111111<<11<<<<11<<<61+",
"#::<:<::::=<::::=::<=<=<..4<14<41111<1#.::<::<=<:::::<:<=<:<::1+",
"#<<<<<1111<:1<11<<11<<1<..1141<1144116..<<1<1<<1<<<1:<<<<<1111<+",
"#%<::<<<1<:<1:<:<<<<<<<<.+#+....++....+.<<<<<<<:<:<::<<<<<<::<=+",
"#+##+++++++##+++++++++++++++++++++++++++++++++++++++++++++++#+++"
};
