/* XPM */
static char *result[] = {
/* columns rows colors chars-per-pixel */
"64 64 59 1 ",
"  c #232323",
". c gray14",
"X c #252525",
"o c gray15",
"O c #272727",
"+ c #282828",
"@ c gray16",
"# c #2A2A2A",
"$ c gray17",
"% c #2C2C2C",
"& c #2D2D2D",
"* c gray18",
"= c #2F2F2F",
"- c gray19",
"; c #313131",
": c #323232",
"> c gray20",
", c #343434",
"< c #353535",
"1 c gray21",
"2 c #373737",
"3 c gray22",
"4 c #393939",
"5 c #3A3A3A",
"6 c gray23",
"7 c #3C3C3C",
"8 c gray24",
"9 c #3E3E3E",
"0 c #3F3F3F",
"q c gray25",
"w c #414141",
"e c gray26",
"r c #434343",
"t c #444444",
"y c gray27",
"u c #464646",
"i c gray28",
"p c #484848",
"a c #494949",
"s c gray29",
"d c #4B4B4B",
"f c #4C4C4C",
"g c gray30",
"h c #4E4E4E",
"j c gray31",
"k c #505050",
"l c #515151",
"z c gray32",
"x c #535353",
"c c gray33",
"v c #555555",
"b c #565656",
"n c gray34",
"m c #585858",
"M c gray35",
"N c #5A5A5A",
"B c #5B5B5B",
"V c gray36",
"C c gray37",
/* pixels */
"agjfxgfgdkfdsspshkmcbbnvnxcbjzhkkhzjbcxnvnbbcnzjapssdfkdgfgxfjgf",
"p8%@@@@@@+@@@+++%&%%&%&%%&%&%%%%&%%&%&%%&%&%%&%&++@@@++@@@@@@%6h",
"l$$$%%&&$$%%%#$o$*dlkkkkkkkjjkhddhkjjlkkkkkkks=%:$$%%$$%&&$%%X$c",
"n+3-:-;-=;-;-=-.=*lblklkllkkggjhhjggkkllkkkkbk=*<>-;-=;-;-=:;&Ob",
"N+4---;;---;;=X*=4c6*==***==********==***==*6c8=*<;;;---;;---%+b",
"vO2=;-;-=;-;=X==2g4-=*==-=*=*-*%&*-**====*==-4g6==<>-=;-;-=;-%+v",
"M+3*---;=---o*=5h4=========-==,ds*===-====-===4h8==1:*--;-=-=%+m",
"B+3=--;;=-=X*-5v6=-=*==-=*==-%pbbu%*==-=*==-=*=6v7**1;--;;=--&+v",
"V+3=;-;-=-.**5c6=*==*=*==*=*=%pbvp%*=*==*=*==*=*6x8=*<>-;-=;-%OB",
"BO4---;;=.&*5c6**************$pvvi$**************6c8*&<:;;---%OB",
"VO2=;-;-X**5c5=****=****=****%annp%****=****=****=5c8**1>-=;-%OC",
"m+3=--;o&*3c6****=****=****=*%ibbi%**=****=****=***6c6**1>=--%+N",
"vO3-;-X*=2z5*==***==***==***=%pbvi%***==***==***==**5z3**2:;;&OM",
"MO3-;.**4x5****&****&****&***%abbp%&****&****&****&**37#*&<>;%oM",
"hO3-.&*<l1***&&*&************$pbvp$********************u5*&>:%Oj",
"lO<.&*4z6=*%**=****=****=****%abvi%****=****=****=****=3z7**:&+x",
"f$%&*4l6****=****=****=****=*%pbbp%**=****=****=****=***6k5**$$a",
"a#*&3f4*==***==****%&**==***=%pbbp%***==***==***==&**==**4l6**$d",
"t$ash6*&**&*&**&***%&&***&***%abbi%&****&****&**%*&*&**&**5xge$u",
"s$fb5***************&********$pbbp$************************3ja$a",
"f#fk-****=****=****=****=****%pcct%****=****=****=*&**=*****tt%d",
"f$gk=**=****=****=****=****=*%pvlt%*******=****=***&*****=&*tr$d",
"j#hk=***==***==***==***==***=%tcxr$***=****==***=*&**==**&**ty$d",
"r$jh=&****&****&****&*&**&***%pcxi%&****&*&**&****&*&**&*&&*6q#i",
"f$ks*************************$tcci$*********&*************&&yi$u",
"s#jd-****=****=****=****=****%rjci%****=****=****=****=*&%&%yy$u",
"i$ay=**=****=****=****=****=*%yvzr%**=****=****=****=****&&*ye#i",
"d#ws=****=***=****==***==***=%ixcw$&**==***==***=*****=%#%**iu$y",
"l$fs=&*&&*&****&****&****&**&1kxhf&&****&*&**&**&%&****&*&&&sj$s",
"d$fy***%$$$%%$$$%%$$$%%$$$%%2xczczg&%$$$$%%$$$%%##$%%$$$$&*&hg$d",
"c#ha-*-quppauidsutaspasffdagzbvjhzkjaasdhfffsdfddpsudaupt%**fa%l",
"f$gg=%4igjhhhlsrgfdljzlxcbzvzvlklzcccvvnbbvvxvxhgffpxhafdr#*gf%j",
"f#gd=$7sgllkzjgsfklchkzzxzllvxzllxcccvvmnnvbccdgdzhagjjzh9$&pd$j",
"c$as=&%raipasieewtyaiaspssaskjxhhxklsasdgfffsfytyip0rityr;%*sp$l",
"d$as***$$$$$$$$$%$$$$%$$$$%$=glffzk,%$$$$%$$$$%$$$$$$#$$#&*&sp$d",
"l#iu-****=*&*%=****=****=****&gjgk:*&**=****=****=$**&=***&=uu%s",
"d$pu=**=*&**=%&**=&***=****=*%rggt%**=****=****=*********=**ip%y",
"i#aa=***=*&%&&***&==***==***=%rfdr%********==**********&**=*ap$i",
"s$pu=&*&**&*&**&****&****&*&*%ryat%&*&**&****&*&*&&****&*&**up$u",
"f$ii*****&*&**&**************$qii5$*******************&****&pu$u",
"r#uu=*&***&&&$&&***=****=****%0er0%****=****=****=****%$****uy%i",
"j$ds=**=*&%&*$%**=****=****=*%5957%**=****=****=****=*&%&***dd%d",
"f#jp=&****&%&==&**==***==***=%6978%&**==***==***==***=*&**=*ah$d",
"f#ip=&&%&*&*&**&*&**&****&***%0dtq%&****&****&****&*&**&****au$d",
"s$ak5&$&&&****&**************$rkdw$************************2jp$a",
"t#idj5&%*=*&**=****=****=****%wkgt%****=****=****=****=&**4kdu%u",
"a$=*1x7=****=****=****=****=*%tlgr%**=****=****=*********4h4**$d",
"f#$==4c8==&**==***=****==***=%ykly%***==***==***==***==*,y3=&$$a",
"lO-.*&5h5*&****&****&****&***%uzzt%&****&****&****&****,y,&*@+Ox",
"hO3= &*5s5****&**************$icci$*******************1d1&&@-%Oj",
"MO3-; &*3f<***=****=****=****%ivvi%****=****=****=***2f1**@:;%OM",
"v+3=;=X**3d4=****=****=****=*%avci%**=****=****=****4l1**#=;;%+M",
"mO3=--;.**1f7==&**==***==***=%pvbp%***==***==***==*5c6=&#:---&ON",
"VO3=;-;-X*&5g5*&****&****&***%ivci%&****&****&****4c5**@;-=;-%oC",
"BO4---;;= &*5h6**************$pbvp$**************4c5*&@-;;---%OB",
"VO2=;-;-=- *=5z8*====*==-=*==&ibvp&=*====*==-=*=5x6*=@;-;-=;-%+B",
"B+3=--;-=-=X==6v8-====-====-=&uvcu&==-=========5v5==#=--;;=--%+v",
"M+3=--;-=--- ==6h6-=*==-=*==-=*sd,=*==-=*==-=*4h6=*#-=--;-=-=&+m",
"v+3=;-;-&;-;=X**3g6=*=*==*=**=*&%*=&=*==*=*==3h3==@;-=;-;-=;-%Ov",
"N+4---;;---;;= *=5c8========================5c5=*@-;;---;;---%+b",
"nO3-;-;-=;-;-=- **kvkkkjkkjjfghhghffkjkkkjjkvk==@;-;-=;-;--;;%+b",
"l%1;::>:-:;::=;$%=dkkklkkkkjjkhddhkjjlkkkkkkks-%1;-::-::>:-:;o%c",
"a8%@@+@@@@+@@@@+%%&%$%%&%$%%&%$%%%%$%%&%$%%&%$%%@@+@@@@+@@@@+%7h",
"iavhkshlfkdgphallhmnbmvvvxxzxcjkkjcxzxxvvvmbnczgkahpgdkflhskhvaa"
};
