/* XPM */
static char *result[] = {
/* columns rows colors chars-per-pixel */
"64 64 44 1 ",
"  c gray17",
". c #2B2B2C",
"X c #2B2C2C",
"o c #2C2C2C",
"O c #2D2D2D",
"+ c gray18",
"@ c #2E2E2F",
"# c #2F2F2F",
"$ c #2F2F30",
"% c gray19",
"& c #313131",
"* c #323232",
"= c #353535",
"- c gray21",
"; c gray22",
": c #3A3A3A",
"> c gray23",
", c #3C3C3C",
"< c gray24",
"1 c #3E3E3E",
"2 c #3F3F3F",
"3 c gray25",
"4 c #414141",
"5 c gray26",
"6 c #434343",
"7 c #444444",
"8 c gray27",
"9 c #464646",
"0 c gray28",
"q c #484848",
"w c #494949",
"e c gray29",
"r c #4B4B4B",
"t c #4C4C4C",
"y c gray30",
"u c #4E4E4E",
"i c gray31",
"p c #505050",
"a c #515151",
"s c gray32",
"d c #535353",
"f c #64717B",
"g c #9EAAB3",
"h c white",
/* pixels */
"%###%###+#++#+#++#+#++#+#++#+#++#+#++#+#++#+#++#+#++#+#+###%##%#",
"%*233<33341221211323413324213223<1314213234123231,222313323213;%",
"%90qeqeeqwq9w99q0we0wwqeq0w0qw9990w00w0qw0w0qeq0q99q8wwweqqeqwe%",
"&14654545644446544456344464343453433654535634436535345344465454%",
"%qww29787568897877989989889798877889889899898487978987579695ete%",
"%4689erewrwrrteeq0rteretreeerterrttwertrerrtt60qteerrrrqert9686%",
"%8089rertrwetyteqeytrtrytrrrttrrtytrrtytrrtyt7eqttrrrrreret99w0%",
"%80e5yteyetteywyywteyteyetyeyeyyryeyyetetywye9teyetyeyetyey00w0%",
"%5668uttttyuyyryutytuutytyuyytuytyyuutytyuyyt0yyyryuyytyyryw588%",
"%8wt5wwqqqwwqw6wwqwwwwqwwwwww6yyrtryyrtrttrtr9trtryyrtrttrtqeew%",
"%3559errrrwrrt8errtteretterrt8eeetterrtteeerr6rrrterrtrerrt9366%",
"%80e0rrrtterrt7rrtytrtrytrtty88880989909888098ttytrttttrrry0wwq%",
"%6786ttqtwrtwr7tyryeyyeyeyyey8tteteyyeyetteyeyyryetywt9rtey0688%",
"%5787yrqttrtrt8yyyyyuutyyuuyy0uytttyutytyytytyutytytwq14trt9987%",
"%7792ew9e0reee7ttrtryyrtryyrt9yyrtrtyrtrttrtrttrrrreq818wer8679%",
"%1324qqetrq08t8eerrterrtterrtr000q9900q990909777907444368904334%",
"%7995wetytrqey8rrryrrrrrrrrtytrttytrtrtrretytwq9reqq777qrwt8080%",
"%24138eweweeqe7ee0q80q0wqeewrweewrweeweqqwwewqw8680q178wwqw8655%",
"%58799q00e9809qq8q9594698008099w99q9qq78980970761467706578qq787%",
"%37090q9008099090q998798987709998008989878770875565689564667786%",
"%-267465574343664644744535635447445355253354452451111533333313;%",
"%#%%#%#%#################################################%%#%##%",
"%##+###++++++++++++++++++++++++++++++++++++++++++++++++++#+#####",
"%####%##++#++++#++++#++++#++++#++++#++++#++++#++++#++++#+###%###",
"%+####+#+++++++++++++++++++++++++++++++++++++++++++++++++####+#%",
"%###%###+#++#+#++#+#++#+#++#+#++#+#++#+#++#+#++#+#++#+#+#######%",
"%#######++++++++++++++++++++++++++++++++++++++++++++++++#######%",
"%#++###++++++++++++++++++++++++++O++++++++++++++++++++++O++#####",
"*&&&&&%%#&&%%%&&%%%&&%%%&&%%%&&%%%%&#%%%&%%%&&%%##&%%%&&%&%&&&&&",
"oooooo.o.oo.o.oo.o.oo.o.oo.o.oo.o.oo.o.oo.o.oo.o  o.o.oX ..ooooo",
"#fggggggggggggggggggggggggggggggggggggggggggggggggggggggggggggf#",
"#ghhhhhhhhhhhhhhhhhhhhhhhhhhhhhhhhhhhhhhhhhhhhhhhhhhhhhhhhhhhhg#",
"#ghhhhhhhhhhhhhhhhhhhhhhhhhhhhhhhhhhhhhhhhhhhhhhhhhhhhhhhhhhhhg$",
"#fggggggggggggggggggggggggggggggggggggggggggggggggggggggggggggf@",
"oooooX o.oX o.oX o.oX o.oX o.oX o.oX o.oX o.oX o.oX o oX o.ooooo",
"*&&&&&&*%&&%%%&%%&%%%%&%&&%%%&&%&%&&%&%&&%&&&&%&&&#%%%&&&*&&&&&*",
"%#######++++++++++++++++++++++++++++++++++++++++++++++++#######%",
"%##+###++++O+O+++++++++++++++++++++++++++++++++++++++++++#+#####",
"%####%##++#++++#++++#++++#++++#++++#++++#++++#++++#++++#+###%###",
"%+####+#+++O+++++++++++++++++++++++++++++++++++++++++++++####+#%",
"%###%###+#+++O#++#+#++#+#++#+#++#+#++#+#++#+#++#+#++#+++###%###%",
"%#######+O++++O+++++++++++++++++++++++++++++++++++++++++#######%",
"%#+++#++OO+OOOO+OOOO+OOOO+OOOO+OOOO+OOOO+OOOO+OOOO+OOOO+++++#+##",
"%&111<:,><11111<113111111<22<2<,,,112111<<1<222<1221<<1,<<<211=#",
"%25752224544446647566576576575563676865756847757547343225276564%",
"%58807966667866099w70q0q9808096979w00q09090qqw000708477767008q7%",
"%<34,534644123332<5656577545522426656466346775667411:33,<25,243%",
"%6972etetwqq8e8ww5rqtteyetr0e0reqrettwtetreyeyyeywe99w5055w6890%",
"%2453rrqert0qw0rr2ertytytytewrtrrtttytytyyyyyuuyyre0ee088587354%",
"%6564rrq00re0w00r4ewetrtrtterrttrtrtyrtrytrtryyrtrtrww0086r8679%",
"%79w70999q8968q705qwqertterrtterrr767788677886778867445215730q0%",
"%5668erwqq99wq0qq8we0eeytrrtytrrr8auiaasaassapiaqituttqeuuu0578%",
"%8wr6ytwq99qww7qw58798809009q90094tyyryeytryeyyr9tyyeyettey0eew%",
"%3557uyrq9qwqweereuypuiiusdpappauquuuyyyuyyyyyut8uyuyytuutyw366%",
"%8qe7yterweeqwwrewretterrtyrtrttr8yyyrtrytrtrytr8yyyrtrttrtqwqq%",
"%6789reqrw0q8rreeerrererrerrtrwer8uerrtrerrtteer8yerrtrwrwy9688%",
"%578599688855999909099999999099994irttttrrrytrer9urrttrrrry9997%",
"%9qw0apttquiraiittpipsipysaipuiaysryyeyetyeyeyr08tyyerwtywt09rw%",
"&3557yte9ttutyryeqttuutytyutrtyytyttytytuyyytyww8tyytrtryttq665%",
"%qet5w0q090wqq0wq9wqww0q0qe9qqqw9q0wqqwqwwqwqwq970ww0090w9w9wtr%",
"%36666765646655555556566565664555655655755656645556556576666676%",
"%79qq9qq0w9707908q00q99q9qq8098978090q8000w89q9007897q99q9qq800%",
"%:878898986877668999090989890886689897998898098866777770988789,#",
"%#%#%%##+##+#+##+#+##+#+##+#+##+#+##+#+##+#+##+#+##+#+###%##%###"
};
