/* XPM */
static char *result[] = {
/* columns rows colors chars-per-pixel */
"64 64 58 1 ",
"  c #2A2A2A",
". c gray17",
"X c #2C2C2C",
"o c #2D2D2D",
"O c gray18",
"+ c #2F2F2F",
"@ c gray19",
"# c #313131",
"$ c #323232",
"% c gray20",
"& c #343434",
"* c #353535",
"= c gray22",
"- c #393939",
"; c #3A3A3A",
": c gray23",
"> c #3C3C3C",
", c gray24",
"< c #3E3E3E",
"1 c gray25",
"2 c #414141",
"3 c gray26",
"4 c #434343",
"5 c #444444",
"6 c gray27",
"7 c #464646",
"8 c gray28",
"9 c #484848",
"0 c #494949",
"q c gray29",
"w c #4B4B4B",
"e c #4C4C4C",
"r c gray30",
"t c #4E4E4E",
"y c gray31",
"u c #505050",
"i c #515151",
"p c gray32",
"a c #535353",
"s c gray33",
"d c #555555",
"f c #565656",
"g c gray34",
"h c #585858",
"j c gray35",
"k c #5A5A5A",
"l c #5B5B5B",
"z c gray36",
"x c #5D5D5D",
"c c gray37",
"v c #5F5F5F",
"b c #606060",
"n c gray38",
"m c #626262",
"M c gray39",
"N c #646464",
"B c gray40",
"V c #676767",
/* pixels */
"+OX.......  ...  ...  ...*spkikigdakpfr.  ...  ...  ... .X....++",
"@wzznnxnbbxdxvxkzcmNvMBNd%8ihtsuisyjyu@mVMbNbmmhzvxlkkvNxcNvkb4+",
"Xnhlnclxlzcdzxkkzzcvhxmcl7$<<<,<<<<<<+9xmclzzcvhzckjjlzvjxnxjzdo",
"obhzbxklkxxglbxkzlvcjznxlznMblcbvzcvMmjzbxkzxvxhzbxjllxzjzbxklgX",
"obhzvzhzhjlglvzhlkxchzvckxlzchlxlhllzchzvxkxlxzflxxjlhjkhkcxjzso",
"XnhzvlklhxlhzvkkhfxcjzvxlxlxxjzvzlzkxcjzbzlxlzjszczkzjzlgzczlzfX",
"ocjjvkkzlxlhkbkjgkccjkbllzzvcjkbllzzvcjkbllzzcldjvklzjxxjjckkzfX",
"Xbjjczkzlxzjkcklzkzcjhcllllccjkcllxlccjkcljxlxzhkxlkzkzxjjvlkzfo",
"XnklvxjxlxcklvllxkcvkzvxlxzcvkzczzczcvklvxzczcxklxzzxlxckjvxzxgX",
"onzkvlxzxvczkvkxzxvczkblcxcbvzkvlxxcbvzkblxxcvxlkclxxxvckkvlcxko",
"XnzlczxxlxxlkczzxzccllxzxxxccllczxxxccllczxxxcclkczzxzxcllxxxcjX",
"omzxvcxvzcclzxxxvzvbzxccxvzvblzccxczvbzxccxvzvbzzccxvlcblxvccbhX",
"XMzzvzxclccklxkxcxbbzzvxcvcvbzzvxcccvbzzvzcvcbbzzczxclkxlzbxxxlo",
"XbklxzkgzxzkklkkzxvvlzcxzcxvvlzxxzcxvvlzcxzczcvkzxxkkfwejkzllxhX",
"ozggkkghhklkzzzzkzcczxvxxxzcczxvzxxzcczxvxxxlccllclkjsrajlxjgfpo",
"XjpagjjlxcjfsvlzkzxxllblzlzvxllvlzlzvxlkblzklxhhkvjddisgklxkfiaX",
"okffgjkzzczsjvzlzlczjlckkzlcxklvzlzlcxklcllzlxjskzkfaidkjjzzlsiX",
"Xhgizhkxkcxkzbclxklsdhxxkzlcxkxbvlzlcxklxxkzlzksykkdedhkhxxxkhio",
"XdgdlcllzcxhznckzzcasizlkklzzjznxkzzczgjvxjzlcluejhdghlffjbzhgaX",
"oldznxzzzvxjlnclxzccgkvzjkllxkxnxlxzccjkxxkllzkdflsphgkhifzjhgpo",
"XjaxnvlclxvhzmvkclzvjlnljcjhxjxbcjxhzzgklzgljzhdjgauafhjijjdtsiX",
"odgxmckxkxchlnxkxlzxhznlhkglzhzvkjlhldgkxhpghzksgp0rupdfddiauueX",
"Xzhzbxkkjvxhzvxjzkcchzbzjjggjdkclhjggjfhkhdhkxldfiwypgkffsasisso",
"XaglcxjkgzzfkcxjzkxxgkxzjjhfhflxzjhpfhpjdjifgzxdhjfuishhgaigqteX",
"odhhckfjflzdlvzkzlzzhzvzkzlzzfkclhdgjaigjhgfgxchlxkddfshffyppawo",
"3&>hkhfggzlgjvkllzzljkvklzzclhhkkkhfhgahjdjjzlxjkvkkjhlgurdei;*3",
"u6#ihffhpkjhkxkkzkzlhkcllzkzzghcjfugflsdghjlklzhkckdkhhkpwipq=9t",
"dp%glsjzpkxjlcklzlklklvzzxlcxkkxlsjgjzjjhgjzzxcjlzhglgzsrujfr5sa",
"di%fjdgafkxjhclzxxcllkvlxxzcclfzffhkzxlhxkjxcccksghkzzllhgfpu6ia",
"sp%djjgjdzxhghklzjzljkxzzzjxzljkkkkjlzlgklzzkzxlghhkxlklfdgsi6aa",
"ld%kzfgdhlzjgkzklfkljjzxxckcczzjhkljlxlzcxxvkzxkzjzdxkjzskllp2fh",
"pt%lzsyshzlhhzduhfhljklkzvlvzljlhllzcvlzvzxvzvxdhgdaxjgjsjjks4ui",
"zf%ljfafflkhkkgsfgzxdgljklklcjjkjklzxcjzczzclxgfdlgsjhklfdgpu4dj",
"sy%hkdjjjkhjkkdaadfkhhljzljlljjkhkkklzkzcxxxkxfdfkgasgdddpphi2ya",
"fd%gkfgdgjgdfcidsakhghckgllzhhhkgjhjllkhzlzklxgujlpsgafhssjhu6da",
"da%ghfsgdgjfdfpdsfzffjclhlkzlfjhghgjlzjjxljzkzjgdjiasukhdahft3ad",
"py$gkjagfgjgkusgghgkdlcxkkjlhdfkjdggjljlkjhzkzdddxksffjfddlgr1yu",
"a5%ggsddjlarjdhdhgzzhlbcklhlkgfjffihjlsgjhjkkzxaaxkgjffjaggdt+6u",
":%5fgfypaxxfjckdgzkxjzncllllvhksasfdfhdkkgkkklcgkxhkkjjjiufsd2#:",
"ovsgkgfialzajzgalklcjxmvkvgzxghddddgjsphlkfghlxkxvkhfpyirhjhsgso",
"Xfisdfuuggyppipskjlcjznxkxkzzaaipihagjpkghiflzzgzvkgst77yphipstX",
"oldjkddslhisitfdkkxzhzbzkzzclaiequpdghsjkjdhkljglxldapw8rfdhghaX",
"Xpdgkadfadppshjshjllglczjlkzhipewufazdsjljpfjjfigljppsatyssjsj0o",
"XgsgjatpaghdgjjdggzldhzhfkklhfggpdhjzkgjkkgjjkkasxlaasgiafjgfgeX",
"ozdfhitisgjsghfghkkkfkckfhzclgflsgkzcxjjzkjklxkddjjsdphsdsxjfhao",
"XdfdkgaidagpshigjgzkgjxjhjgkhddjdhzkzljglljzkxxhjhkssigsuaxjsjtX",
"ojffgzjkkkzidjfghkklklclzzjxzdhkfjxzxzkklllxzccklzgsidjdpgkfdjuX",
"Xzfdkhxzlxggajsjjkxzlkvlxxzllghzhzzzcclkvkzxxvclkxhajjfhyphgdkso",
"XkisjhkkhxlpfgfhkakzhjxzzxkljjjlllxzcclkczzxzcclkzhflghdttijsssX",
"ocdjklzzdkchgkhgzflkjzccxvzxxlzxxzczvbzxccxvzvbzxcxlzhhhaszzhgao",
"XmllxhfgfkhspdgfjhzxhlvxcvcbvzlclxxxbbzzvxcvcvbzzvzxkhjkdlxlxckX",
"onkzclzkfhgdkhdgjlhzflzxzczvvkzxllxzvvlzcxzcxvvlzxlzzkjzkzcxzxhX",
"Xnzxvcxlfjadkjfgjkkzlkcxxxzcclzcxxzzcczxvxxxzcczzvxxxlcclzvxccgo",
"XblzvzzkggffglhgjjzkllvlllzvxllvlzlzvxlzblzlzvxllvlzlzvxlzvzxzhX",
"obkzcxklkzzghkkkhjxxkzvxlzzvxjzczlzzvckzvxzzzvzjlczlzlczjzvzzlgo",
"XbkxbvkkkkjhsvxkzkzzlcbvlxlvxlxbclxzvxlxbvlxlcllzcvlxlxzllbvlzdX",
"obkznckhjxlffbxkzzcxkxnclzzvxkxnclzzvxkxncjzzczjzbcklzxxkknckzfX",
"Xbklnxllgjzjknxkhjcvkxmczczvvkxnxzxzvvkxnxzxzvzdzbclxjxxjzbxkxso",
"XnkcmckzszxkxmxkkfzvkxMvlvlxckxmclvjxbkcMvlvlzjfxvvkcjzljcbvlcsX",
"onjxmzjxhjxhznzjllxvkxmclxzzvhzbzkxzxvjxmclxzcchzbxkzjkkjlbclxdo",
"XbhzbzkllxxhkbzkllvcjznxlzadpypdsuaudsjzbxkzxvzhzbxhlzxzhzbxklgX",
"ovhkcxkzklzslklhllxchzvxj:@7887667889=>zvckllxxflzkhjkzxhlvxhzsX",
"+2iusippasarisuyuaffiagaq@4fkajsahaxpj-dfaassfdtupiiuiadypdpya>@",
"+@...XX.. .... .... .... *sslpkpffakagr .... .... .... .X...XX++"
};
